<mxfile host="app.diagrams.net" modified="2023-12-12T19:27:30.222Z" agent="Mozilla/5.0 (Windows NT 10.0; Win64; x64) AppleWebKit/537.36 (KHTML, like Gecko) Chrome/120.0.0.0 Safari/537.36" etag="2JcW7vhqfzyPxtFl0CTk" version="22.1.8" type="device">
  <diagram id="C5RBs43oDa-KdzZeNtuy" name="Page-1">
    <mxGraphModel dx="1793" dy="2117" grid="1" gridSize="10" guides="1" tooltips="1" connect="1" arrows="1" fold="1" page="1" pageScale="1" pageWidth="827" pageHeight="1169" math="0" shadow="0">
      <root>
        <mxCell id="WIyWlLk6GJQsqaUBKTNV-0" />
        <mxCell id="WIyWlLk6GJQsqaUBKTNV-1" parent="WIyWlLk6GJQsqaUBKTNV-0" />
        <mxCell id="zkfFHV4jXpPFQw0GAbJ--0" value="Game" style="swimlane;fontStyle=2;align=center;verticalAlign=top;childLayout=stackLayout;horizontal=1;startSize=26;horizontalStack=0;resizeParent=1;resizeLast=0;collapsible=1;marginBottom=0;rounded=0;shadow=0;strokeWidth=1;" parent="WIyWlLk6GJQsqaUBKTNV-1" vertex="1">
          <mxGeometry x="60" y="53" width="160" height="138" as="geometry">
            <mxRectangle x="230" y="140" width="160" height="26" as="alternateBounds" />
          </mxGeometry>
        </mxCell>
        <mxCell id="zkfFHV4jXpPFQw0GAbJ--4" value="" style="line;html=1;strokeWidth=1;align=left;verticalAlign=middle;spacingTop=-1;spacingLeft=3;spacingRight=3;rotatable=0;labelPosition=right;points=[];portConstraint=eastwest;" parent="zkfFHV4jXpPFQw0GAbJ--0" vertex="1">
          <mxGeometry y="26" width="160" height="8" as="geometry" />
        </mxCell>
        <mxCell id="zkfFHV4jXpPFQw0GAbJ--5" value="load asset manager&#xa;&#xa;load music manager&#xa;" style="text;align=left;verticalAlign=top;spacingLeft=4;spacingRight=4;overflow=hidden;rotatable=0;points=[[0,0.5],[1,0.5]];portConstraint=eastwest;" parent="zkfFHV4jXpPFQw0GAbJ--0" vertex="1">
          <mxGeometry y="34" width="160" height="26" as="geometry" />
        </mxCell>
        <mxCell id="CgxUOIAEzQKmIanFv_kc-8" value="load level manager" style="text;align=left;verticalAlign=top;spacingLeft=4;spacingRight=4;overflow=hidden;rotatable=0;points=[[0,0.5],[1,0.5]];portConstraint=eastwest;" parent="zkfFHV4jXpPFQw0GAbJ--0" vertex="1">
          <mxGeometry y="60" width="160" height="26" as="geometry" />
        </mxCell>
        <mxCell id="cXOR_1gctp86kLxKhxG7-21" value="Game loop" style="text;html=1;align=center;verticalAlign=middle;resizable=0;points=[];autosize=1;strokeColor=none;fillColor=none;" vertex="1" parent="zkfFHV4jXpPFQw0GAbJ--0">
          <mxGeometry y="86" width="160" height="30" as="geometry" />
        </mxCell>
        <mxCell id="zkfFHV4jXpPFQw0GAbJ--17" value="Asset Manager" style="swimlane;fontStyle=0;align=center;verticalAlign=top;childLayout=stackLayout;horizontal=1;startSize=26;horizontalStack=0;resizeParent=1;resizeLast=0;collapsible=1;marginBottom=0;rounded=0;shadow=0;strokeWidth=1;" parent="WIyWlLk6GJQsqaUBKTNV-1" vertex="1">
          <mxGeometry x="330" y="30" width="178" height="184" as="geometry">
            <mxRectangle x="550" y="140" width="160" height="26" as="alternateBounds" />
          </mxGeometry>
        </mxCell>
        <mxCell id="zkfFHV4jXpPFQw0GAbJ--23" value="" style="line;html=1;strokeWidth=1;align=left;verticalAlign=middle;spacingTop=-1;spacingLeft=3;spacingRight=3;rotatable=0;labelPosition=right;points=[];portConstraint=eastwest;" parent="zkfFHV4jXpPFQw0GAbJ--17" vertex="1">
          <mxGeometry y="26" width="178" height="8" as="geometry" />
        </mxCell>
        <mxCell id="CgxUOIAEzQKmIanFv_kc-18" value="Initialize all assets " style="text;html=1;align=center;verticalAlign=middle;resizable=0;points=[];autosize=1;strokeColor=none;fillColor=none;" parent="zkfFHV4jXpPFQw0GAbJ--17" vertex="1">
          <mxGeometry y="34" width="178" height="30" as="geometry" />
        </mxCell>
        <mxCell id="CgxUOIAEzQKmIanFv_kc-19" value="&lt;div&gt;All sprites exist here&lt;/div&gt;" style="text;html=1;align=center;verticalAlign=middle;resizable=0;points=[];autosize=1;strokeColor=none;fillColor=none;" parent="zkfFHV4jXpPFQw0GAbJ--17" vertex="1">
          <mxGeometry y="64" width="178" height="30" as="geometry" />
        </mxCell>
        <mxCell id="CgxUOIAEzQKmIanFv_kc-104" value="Music Manager" style="text;html=1;align=center;verticalAlign=middle;resizable=0;points=[];autosize=1;strokeColor=none;fillColor=none;" parent="zkfFHV4jXpPFQw0GAbJ--17" vertex="1">
          <mxGeometry y="94" width="178" height="30" as="geometry" />
        </mxCell>
        <mxCell id="CgxUOIAEzQKmIanFv_kc-109" value="&lt;div&gt;asset animation management&lt;/div&gt;" style="text;html=1;align=center;verticalAlign=middle;resizable=0;points=[];autosize=1;strokeColor=none;fillColor=none;" parent="zkfFHV4jXpPFQw0GAbJ--17" vertex="1">
          <mxGeometry y="124" width="178" height="30" as="geometry" />
        </mxCell>
        <mxCell id="SrIs2BrmtRMQ9l2RYk-Y-6" value="splash screen to hide loading" style="text;html=1;align=center;verticalAlign=middle;resizable=0;points=[];autosize=1;strokeColor=none;fillColor=none;" parent="zkfFHV4jXpPFQw0GAbJ--17" vertex="1">
          <mxGeometry y="154" width="178" height="30" as="geometry" />
        </mxCell>
        <mxCell id="CgxUOIAEzQKmIanFv_kc-10" value="Music Manager" style="swimlane;fontStyle=0;align=center;verticalAlign=top;childLayout=stackLayout;horizontal=1;startSize=26;horizontalStack=0;resizeParent=1;resizeLast=0;collapsible=1;marginBottom=0;rounded=0;shadow=0;strokeWidth=1;" parent="WIyWlLk6GJQsqaUBKTNV-1" vertex="1">
          <mxGeometry x="333" y="253" width="183" height="140" as="geometry">
            <mxRectangle x="550" y="140" width="160" height="26" as="alternateBounds" />
          </mxGeometry>
        </mxCell>
        <mxCell id="CgxUOIAEzQKmIanFv_kc-11" value="" style="line;html=1;strokeWidth=1;align=left;verticalAlign=middle;spacingTop=-1;spacingLeft=3;spacingRight=3;rotatable=0;labelPosition=right;points=[];portConstraint=eastwest;" parent="CgxUOIAEzQKmIanFv_kc-10" vertex="1">
          <mxGeometry y="26" width="183" height="8" as="geometry" />
        </mxCell>
        <mxCell id="CgxUOIAEzQKmIanFv_kc-23" value="&lt;div&gt;pygame.mixer&lt;/div&gt;" style="text;html=1;align=center;verticalAlign=middle;resizable=0;points=[];autosize=1;strokeColor=none;fillColor=none;" parent="CgxUOIAEzQKmIanFv_kc-10" vertex="1">
          <mxGeometry y="34" width="183" height="30" as="geometry" />
        </mxCell>
        <mxCell id="CgxUOIAEzQKmIanFv_kc-22" value="Store/Start/Stop music options" style="text;html=1;align=center;verticalAlign=middle;resizable=0;points=[];autosize=1;strokeColor=none;fillColor=none;" parent="CgxUOIAEzQKmIanFv_kc-10" vertex="1">
          <mxGeometry y="64" width="183" height="30" as="geometry" />
        </mxCell>
        <mxCell id="CgxUOIAEzQKmIanFv_kc-43" style="edgeStyle=orthogonalEdgeStyle;rounded=0;orthogonalLoop=1;jettySize=auto;html=1;exitX=1;exitY=0.75;exitDx=0;exitDy=0;entryX=1;entryY=0.25;entryDx=0;entryDy=0;endArrow=classic;endFill=1;startArrow=classic;startFill=1;" parent="WIyWlLk6GJQsqaUBKTNV-1" source="CgxUOIAEzQKmIanFv_kc-12" target="zkfFHV4jXpPFQw0GAbJ--17" edge="1">
          <mxGeometry relative="1" as="geometry">
            <Array as="points">
              <mxPoint x="530" y="523" />
              <mxPoint x="530" y="81" />
              <mxPoint x="520" y="81" />
              <mxPoint x="520" y="92" />
            </Array>
          </mxGeometry>
        </mxCell>
        <mxCell id="TFks07u6yclh4-rxXNK--22" style="edgeStyle=orthogonalEdgeStyle;rounded=0;orthogonalLoop=1;jettySize=auto;html=1;entryX=0.5;entryY=0;entryDx=0;entryDy=0;" parent="WIyWlLk6GJQsqaUBKTNV-1" source="CgxUOIAEzQKmIanFv_kc-12" target="TFks07u6yclh4-rxXNK--2" edge="1">
          <mxGeometry relative="1" as="geometry" />
        </mxCell>
        <mxCell id="CgxUOIAEzQKmIanFv_kc-12" value="Level Manager" style="swimlane;fontStyle=0;align=center;verticalAlign=top;childLayout=stackLayout;horizontal=1;startSize=26;horizontalStack=0;resizeParent=1;resizeLast=0;collapsible=1;marginBottom=0;rounded=0;shadow=0;strokeWidth=1;" parent="WIyWlLk6GJQsqaUBKTNV-1" vertex="1">
          <mxGeometry x="333" y="404" width="188" height="199" as="geometry">
            <mxRectangle x="550" y="140" width="160" height="26" as="alternateBounds" />
          </mxGeometry>
        </mxCell>
        <mxCell id="CgxUOIAEzQKmIanFv_kc-13" value="" style="line;html=1;strokeWidth=1;align=left;verticalAlign=middle;spacingTop=-1;spacingLeft=3;spacingRight=3;rotatable=0;labelPosition=right;points=[];portConstraint=eastwest;" parent="CgxUOIAEzQKmIanFv_kc-12" vertex="1">
          <mxGeometry y="26" width="188" height="8" as="geometry" />
        </mxCell>
        <mxCell id="CgxUOIAEzQKmIanFv_kc-25" value="Level: &lt;br&gt;&lt;div&gt;csv files of current loaded level&lt;/div&gt;" style="text;html=1;align=center;verticalAlign=middle;resizable=0;points=[];autosize=1;strokeColor=none;fillColor=none;" parent="CgxUOIAEzQKmIanFv_kc-12" vertex="1">
          <mxGeometry y="34" width="188" height="40" as="geometry" />
        </mxCell>
        <mxCell id="CgxUOIAEzQKmIanFv_kc-38" value="CameraManager" style="text;html=1;align=center;verticalAlign=middle;resizable=0;points=[];autosize=1;strokeColor=none;fillColor=none;" parent="CgxUOIAEzQKmIanFv_kc-12" vertex="1">
          <mxGeometry y="74" width="188" height="30" as="geometry" />
        </mxCell>
        <mxCell id="CgxUOIAEzQKmIanFv_kc-44" value="Asset Manager" style="text;html=1;align=center;verticalAlign=middle;resizable=0;points=[];autosize=1;strokeColor=none;fillColor=none;" parent="CgxUOIAEzQKmIanFv_kc-12" vertex="1">
          <mxGeometry y="104" width="188" height="30" as="geometry" />
        </mxCell>
        <mxCell id="WLpRh8bee1_E9fL5cX3q-1" value="Pause Level+open Pause Menu" style="text;html=1;align=center;verticalAlign=middle;resizable=0;points=[];autosize=1;strokeColor=none;fillColor=none;" parent="CgxUOIAEzQKmIanFv_kc-12" vertex="1">
          <mxGeometry y="134" width="188" height="30" as="geometry" />
        </mxCell>
        <mxCell id="CgxUOIAEzQKmIanFv_kc-16" style="edgeStyle=orthogonalEdgeStyle;rounded=0;orthogonalLoop=1;jettySize=auto;html=1;exitX=1;exitY=0.5;exitDx=0;exitDy=0;entryX=-0.019;entryY=0.267;entryDx=0;entryDy=0;entryPerimeter=0;endArrow=diamondThin;endFill=1;" parent="WIyWlLk6GJQsqaUBKTNV-1" source="zkfFHV4jXpPFQw0GAbJ--5" target="CgxUOIAEzQKmIanFv_kc-18" edge="1">
          <mxGeometry relative="1" as="geometry">
            <Array as="points">
              <mxPoint x="220" y="93" />
              <mxPoint x="275" y="93" />
              <mxPoint x="275" y="72" />
            </Array>
          </mxGeometry>
        </mxCell>
        <mxCell id="CgxUOIAEzQKmIanFv_kc-34" value="CameraManager" style="swimlane;fontStyle=0;childLayout=stackLayout;horizontal=1;startSize=30;horizontalStack=0;resizeParent=1;resizeParentMax=0;resizeLast=0;collapsible=1;marginBottom=0;whiteSpace=wrap;html=1;" parent="WIyWlLk6GJQsqaUBKTNV-1" vertex="1">
          <mxGeometry x="376" y="-210" width="140" height="100" as="geometry" />
        </mxCell>
        <mxCell id="CgxUOIAEzQKmIanFv_kc-35" value="manipulates rendered pos of all assets" style="text;strokeColor=none;fillColor=none;align=left;verticalAlign=middle;spacingLeft=4;spacingRight=4;overflow=hidden;points=[[0,0.5],[1,0.5]];portConstraint=eastwest;rotatable=0;whiteSpace=wrap;html=1;" parent="CgxUOIAEzQKmIanFv_kc-34" vertex="1">
          <mxGeometry y="30" width="140" height="30" as="geometry" />
        </mxCell>
        <mxCell id="CgxUOIAEzQKmIanFv_kc-36" value="Smart rendering system" style="text;strokeColor=none;fillColor=none;align=left;verticalAlign=middle;spacingLeft=4;spacingRight=4;overflow=hidden;points=[[0,0.5],[1,0.5]];portConstraint=eastwest;rotatable=0;whiteSpace=wrap;html=1;" parent="CgxUOIAEzQKmIanFv_kc-34" vertex="1">
          <mxGeometry y="60" width="140" height="40" as="geometry" />
        </mxCell>
        <mxCell id="CgxUOIAEzQKmIanFv_kc-53" value="Level" style="swimlane;fontStyle=0;childLayout=stackLayout;horizontal=1;startSize=30;horizontalStack=0;resizeParent=1;resizeParentMax=0;resizeLast=0;collapsible=1;marginBottom=0;whiteSpace=wrap;html=1;" parent="WIyWlLk6GJQsqaUBKTNV-1" vertex="1">
          <mxGeometry x="580" y="30" width="140" height="90" as="geometry" />
        </mxCell>
        <mxCell id="CgxUOIAEzQKmIanFv_kc-54" value="CSVs of map layers" style="text;strokeColor=none;fillColor=none;align=left;verticalAlign=middle;spacingLeft=4;spacingRight=4;overflow=hidden;points=[[0,0.5],[1,0.5]];portConstraint=eastwest;rotatable=0;whiteSpace=wrap;html=1;" parent="CgxUOIAEzQKmIanFv_kc-53" vertex="1">
          <mxGeometry y="30" width="140" height="30" as="geometry" />
        </mxCell>
        <mxCell id="SrIs2BrmtRMQ9l2RYk-Y-26" value="music path" style="text;strokeColor=none;fillColor=none;align=left;verticalAlign=middle;spacingLeft=4;spacingRight=4;overflow=hidden;points=[[0,0.5],[1,0.5]];portConstraint=eastwest;rotatable=0;whiteSpace=wrap;html=1;" parent="CgxUOIAEzQKmIanFv_kc-53" vertex="1">
          <mxGeometry y="60" width="140" height="30" as="geometry" />
        </mxCell>
        <mxCell id="CgxUOIAEzQKmIanFv_kc-57" style="edgeStyle=orthogonalEdgeStyle;rounded=0;orthogonalLoop=1;jettySize=auto;html=1;exitX=1;exitY=1;exitDx=0;exitDy=0;entryX=0;entryY=0.25;entryDx=0;entryDy=0;" parent="WIyWlLk6GJQsqaUBKTNV-1" source="CgxUOIAEzQKmIanFv_kc-12" target="CgxUOIAEzQKmIanFv_kc-53" edge="1">
          <mxGeometry relative="1" as="geometry">
            <Array as="points">
              <mxPoint x="488" y="610" />
              <mxPoint x="560" y="610" />
              <mxPoint x="560" y="53" />
            </Array>
          </mxGeometry>
        </mxCell>
        <mxCell id="8Yu4PCCks1HtGJhXdjzZ-5" style="edgeStyle=orthogonalEdgeStyle;rounded=0;orthogonalLoop=1;jettySize=auto;html=1;exitX=1;exitY=0.25;exitDx=0;exitDy=0;endArrow=block;endFill=0;" parent="WIyWlLk6GJQsqaUBKTNV-1" source="CgxUOIAEzQKmIanFv_kc-58" target="8Yu4PCCks1HtGJhXdjzZ-1" edge="1">
          <mxGeometry relative="1" as="geometry">
            <mxPoint x="1220" y="100" as="sourcePoint" />
            <mxPoint x="1480" y="38" as="targetPoint" />
          </mxGeometry>
        </mxCell>
        <mxCell id="CgxUOIAEzQKmIanFv_kc-102" style="edgeStyle=orthogonalEdgeStyle;rounded=0;orthogonalLoop=1;jettySize=auto;html=1;exitX=0.75;exitY=1;exitDx=0;exitDy=0;entryX=0.5;entryY=0;entryDx=0;entryDy=0;endArrow=block;endFill=0;" parent="WIyWlLk6GJQsqaUBKTNV-1" source="CgxUOIAEzQKmIanFv_kc-62" target="CgxUOIAEzQKmIanFv_kc-72" edge="1">
          <mxGeometry relative="1" as="geometry" />
        </mxCell>
        <mxCell id="CgxUOIAEzQKmIanFv_kc-62" value="Item" style="swimlane;fontStyle=0;childLayout=stackLayout;horizontal=1;startSize=30;horizontalStack=0;resizeParent=1;resizeParentMax=0;resizeLast=0;collapsible=1;marginBottom=0;whiteSpace=wrap;html=1;" parent="WIyWlLk6GJQsqaUBKTNV-1" vertex="1">
          <mxGeometry x="832" y="380" width="140" height="90" as="geometry" />
        </mxCell>
        <mxCell id="CgxUOIAEzQKmIanFv_kc-63" value="Value of item-impact on boredom meter" style="text;strokeColor=none;fillColor=none;align=left;verticalAlign=middle;spacingLeft=4;spacingRight=4;overflow=hidden;points=[[0,0.5],[1,0.5]];portConstraint=eastwest;rotatable=0;whiteSpace=wrap;html=1;" parent="CgxUOIAEzQKmIanFv_kc-62" vertex="1">
          <mxGeometry y="30" width="140" height="30" as="geometry" />
        </mxCell>
        <mxCell id="CgxUOIAEzQKmIanFv_kc-64" value="Dialog boxes description/explanation" style="text;strokeColor=none;fillColor=none;align=left;verticalAlign=middle;spacingLeft=4;spacingRight=4;overflow=hidden;points=[[0,0.5],[1,0.5]];portConstraint=eastwest;rotatable=0;whiteSpace=wrap;html=1;" parent="CgxUOIAEzQKmIanFv_kc-62" vertex="1">
          <mxGeometry y="60" width="140" height="30" as="geometry" />
        </mxCell>
        <mxCell id="CgxUOIAEzQKmIanFv_kc-89" style="edgeStyle=orthogonalEdgeStyle;rounded=0;orthogonalLoop=1;jettySize=auto;html=1;exitX=0.25;exitY=1;exitDx=0;exitDy=0;entryX=0.5;entryY=0;entryDx=0;entryDy=0;endArrow=block;endFill=0;" parent="WIyWlLk6GJQsqaUBKTNV-1" source="CgxUOIAEzQKmIanFv_kc-66" target="CgxUOIAEzQKmIanFv_kc-84" edge="1">
          <mxGeometry relative="1" as="geometry">
            <mxPoint x="1070" y="867" as="targetPoint" />
          </mxGeometry>
        </mxCell>
        <mxCell id="CgxUOIAEzQKmIanFv_kc-114" style="edgeStyle=orthogonalEdgeStyle;rounded=0;orthogonalLoop=1;jettySize=auto;html=1;exitX=0.75;exitY=1;exitDx=0;exitDy=0;entryX=0.5;entryY=0;entryDx=0;entryDy=0;endArrow=block;endFill=0;" parent="WIyWlLk6GJQsqaUBKTNV-1" source="CgxUOIAEzQKmIanFv_kc-66" target="CgxUOIAEzQKmIanFv_kc-110" edge="1">
          <mxGeometry relative="1" as="geometry" />
        </mxCell>
        <mxCell id="CgxUOIAEzQKmIanFv_kc-66" value="Character" style="swimlane;fontStyle=0;childLayout=stackLayout;horizontal=1;startSize=30;horizontalStack=0;resizeParent=1;resizeParentMax=0;resizeLast=0;collapsible=1;marginBottom=0;whiteSpace=wrap;html=1;" parent="WIyWlLk6GJQsqaUBKTNV-1" vertex="1">
          <mxGeometry x="1290" y="360" width="140" height="150" as="geometry" />
        </mxCell>
        <mxCell id="CgxUOIAEzQKmIanFv_kc-67" value="speed of sprite" style="text;strokeColor=none;fillColor=none;align=left;verticalAlign=middle;spacingLeft=4;spacingRight=4;overflow=hidden;points=[[0,0.5],[1,0.5]];portConstraint=eastwest;rotatable=0;whiteSpace=wrap;html=1;" parent="CgxUOIAEzQKmIanFv_kc-66" vertex="1">
          <mxGeometry y="30" width="140" height="30" as="geometry" />
        </mxCell>
        <mxCell id="CgxUOIAEzQKmIanFv_kc-68" value="collision check detect" style="text;strokeColor=none;fillColor=none;align=left;verticalAlign=middle;spacingLeft=4;spacingRight=4;overflow=hidden;points=[[0,0.5],[1,0.5]];portConstraint=eastwest;rotatable=0;whiteSpace=wrap;html=1;" parent="CgxUOIAEzQKmIanFv_kc-66" vertex="1">
          <mxGeometry y="60" width="140" height="30" as="geometry" />
        </mxCell>
        <mxCell id="WLpRh8bee1_E9fL5cX3q-3" value="collision adjust compass" style="text;strokeColor=none;fillColor=none;align=left;verticalAlign=middle;spacingLeft=4;spacingRight=4;overflow=hidden;points=[[0,0.5],[1,0.5]];portConstraint=eastwest;rotatable=0;whiteSpace=wrap;html=1;" parent="CgxUOIAEzQKmIanFv_kc-66" vertex="1">
          <mxGeometry y="90" width="140" height="30" as="geometry" />
        </mxCell>
        <mxCell id="SrIs2BrmtRMQ9l2RYk-Y-10" value="dict of sound effects for AudioManager" style="text;strokeColor=none;fillColor=none;align=left;verticalAlign=middle;spacingLeft=4;spacingRight=4;overflow=hidden;points=[[0,0.5],[1,0.5]];portConstraint=eastwest;rotatable=0;whiteSpace=wrap;html=1;" parent="CgxUOIAEzQKmIanFv_kc-66" vertex="1">
          <mxGeometry y="120" width="140" height="30" as="geometry" />
        </mxCell>
        <mxCell id="CgxUOIAEzQKmIanFv_kc-72" value="Coin" style="swimlane;fontStyle=0;childLayout=stackLayout;horizontal=1;startSize=30;horizontalStack=0;resizeParent=1;resizeParentMax=0;resizeLast=0;collapsible=1;marginBottom=0;whiteSpace=wrap;html=1;" parent="WIyWlLk6GJQsqaUBKTNV-1" vertex="1">
          <mxGeometry x="972" y="530" width="140" height="100" as="geometry">
            <mxRectangle x="730" y="420" width="70" height="30" as="alternateBounds" />
          </mxGeometry>
        </mxCell>
        <mxCell id="CgxUOIAEzQKmIanFv_kc-73" value="&lt;div&gt;item specific dialog&lt;/div&gt;" style="text;strokeColor=none;fillColor=none;align=left;verticalAlign=middle;spacingLeft=4;spacingRight=4;overflow=hidden;points=[[0,0.5],[1,0.5]];portConstraint=eastwest;rotatable=0;whiteSpace=wrap;html=1;" parent="CgxUOIAEzQKmIanFv_kc-72" vertex="1">
          <mxGeometry y="30" width="140" height="30" as="geometry" />
        </mxCell>
        <mxCell id="CgxUOIAEzQKmIanFv_kc-86" value="item specific value" style="text;strokeColor=none;fillColor=none;align=left;verticalAlign=middle;spacingLeft=4;spacingRight=4;overflow=hidden;points=[[0,0.5],[1,0.5]];portConstraint=eastwest;rotatable=0;whiteSpace=wrap;html=1;" parent="CgxUOIAEzQKmIanFv_kc-72" vertex="1">
          <mxGeometry y="60" width="140" height="40" as="geometry" />
        </mxCell>
        <mxCell id="CgxUOIAEzQKmIanFv_kc-76" value="Skeleton" style="swimlane;fontStyle=0;childLayout=stackLayout;horizontal=1;startSize=30;horizontalStack=0;resizeParent=1;resizeParentMax=0;resizeLast=0;collapsible=1;marginBottom=0;whiteSpace=wrap;html=1;" parent="WIyWlLk6GJQsqaUBKTNV-1" vertex="1">
          <mxGeometry x="1490" y="760" width="140" height="120" as="geometry" />
        </mxCell>
        <mxCell id="CgxUOIAEzQKmIanFv_kc-77" value="Skeleton sprite sheet" style="text;strokeColor=none;fillColor=none;align=left;verticalAlign=middle;spacingLeft=4;spacingRight=4;overflow=hidden;points=[[0,0.5],[1,0.5]];portConstraint=eastwest;rotatable=0;whiteSpace=wrap;html=1;" parent="CgxUOIAEzQKmIanFv_kc-76" vertex="1">
          <mxGeometry y="30" width="140" height="30" as="geometry" />
        </mxCell>
        <mxCell id="cXOR_1gctp86kLxKhxG7-13" value="hitbox" style="text;strokeColor=none;fillColor=none;align=left;verticalAlign=middle;spacingLeft=4;spacingRight=4;overflow=hidden;points=[[0,0.5],[1,0.5]];portConstraint=eastwest;rotatable=0;whiteSpace=wrap;html=1;" vertex="1" parent="CgxUOIAEzQKmIanFv_kc-76">
          <mxGeometry y="60" width="140" height="30" as="geometry" />
        </mxCell>
        <mxCell id="CgxUOIAEzQKmIanFv_kc-78" value="auto move instructions" style="text;strokeColor=none;fillColor=none;align=left;verticalAlign=middle;spacingLeft=4;spacingRight=4;overflow=hidden;points=[[0,0.5],[1,0.5]];portConstraint=eastwest;rotatable=0;whiteSpace=wrap;html=1;" parent="CgxUOIAEzQKmIanFv_kc-76" vertex="1">
          <mxGeometry y="90" width="140" height="30" as="geometry" />
        </mxCell>
        <mxCell id="CgxUOIAEzQKmIanFv_kc-80" value="Damsel" style="swimlane;fontStyle=0;childLayout=stackLayout;horizontal=1;startSize=30;horizontalStack=0;resizeParent=1;resizeParentMax=0;resizeLast=0;collapsible=1;marginBottom=0;whiteSpace=wrap;html=1;" parent="WIyWlLk6GJQsqaUBKTNV-1" vertex="1">
          <mxGeometry x="1321" y="760" width="140" height="120" as="geometry" />
        </mxCell>
        <mxCell id="CgxUOIAEzQKmIanFv_kc-81" value="Damsel sprite sheet" style="text;strokeColor=none;fillColor=none;align=left;verticalAlign=middle;spacingLeft=4;spacingRight=4;overflow=hidden;points=[[0,0.5],[1,0.5]];portConstraint=eastwest;rotatable=0;whiteSpace=wrap;html=1;" parent="CgxUOIAEzQKmIanFv_kc-80" vertex="1">
          <mxGeometry y="30" width="140" height="30" as="geometry" />
        </mxCell>
        <mxCell id="cXOR_1gctp86kLxKhxG7-12" value="hitbox" style="text;strokeColor=none;fillColor=none;align=left;verticalAlign=middle;spacingLeft=4;spacingRight=4;overflow=hidden;points=[[0,0.5],[1,0.5]];portConstraint=eastwest;rotatable=0;whiteSpace=wrap;html=1;" vertex="1" parent="CgxUOIAEzQKmIanFv_kc-80">
          <mxGeometry y="60" width="140" height="30" as="geometry" />
        </mxCell>
        <mxCell id="CgxUOIAEzQKmIanFv_kc-82" value="auto move instructions" style="text;strokeColor=none;fillColor=none;align=left;verticalAlign=middle;spacingLeft=4;spacingRight=4;overflow=hidden;points=[[0,0.5],[1,0.5]];portConstraint=eastwest;rotatable=0;whiteSpace=wrap;html=1;" parent="CgxUOIAEzQKmIanFv_kc-80" vertex="1">
          <mxGeometry y="90" width="140" height="30" as="geometry" />
        </mxCell>
        <mxCell id="CgxUOIAEzQKmIanFv_kc-84" value="Player" style="swimlane;fontStyle=0;childLayout=stackLayout;horizontal=1;startSize=30;horizontalStack=0;resizeParent=1;resizeParentMax=0;resizeLast=0;collapsible=1;marginBottom=0;whiteSpace=wrap;html=1;" parent="WIyWlLk6GJQsqaUBKTNV-1" vertex="1">
          <mxGeometry x="1150" y="600" width="140" height="210" as="geometry" />
        </mxCell>
        <mxCell id="CgxUOIAEzQKmIanFv_kc-85" value="collision calls" style="text;strokeColor=none;fillColor=none;align=left;verticalAlign=middle;spacingLeft=4;spacingRight=4;overflow=hidden;points=[[0,0.5],[1,0.5]];portConstraint=eastwest;rotatable=0;whiteSpace=wrap;html=1;" parent="CgxUOIAEzQKmIanFv_kc-84" vertex="1">
          <mxGeometry y="30" width="140" height="30" as="geometry" />
        </mxCell>
        <mxCell id="SrIs2BrmtRMQ9l2RYk-Y-0" value="player movement" style="text;strokeColor=none;fillColor=none;align=left;verticalAlign=middle;spacingLeft=4;spacingRight=4;overflow=hidden;points=[[0,0.5],[1,0.5]];portConstraint=eastwest;rotatable=0;whiteSpace=wrap;html=1;" parent="CgxUOIAEzQKmIanFv_kc-84" vertex="1">
          <mxGeometry y="60" width="140" height="30" as="geometry" />
        </mxCell>
        <mxCell id="SrIs2BrmtRMQ9l2RYk-Y-1" value="boredom meter" style="text;strokeColor=none;fillColor=none;align=left;verticalAlign=middle;spacingLeft=4;spacingRight=4;overflow=hidden;points=[[0,0.5],[1,0.5]];portConstraint=eastwest;rotatable=0;whiteSpace=wrap;html=1;" parent="CgxUOIAEzQKmIanFv_kc-84" vertex="1">
          <mxGeometry y="90" width="140" height="30" as="geometry" />
        </mxCell>
        <mxCell id="SrIs2BrmtRMQ9l2RYk-Y-4" value="set/get boredom meter" style="text;strokeColor=none;fillColor=none;align=left;verticalAlign=middle;spacingLeft=4;spacingRight=4;overflow=hidden;points=[[0,0.5],[1,0.5]];portConstraint=eastwest;rotatable=0;whiteSpace=wrap;html=1;" parent="CgxUOIAEzQKmIanFv_kc-84" vertex="1">
          <mxGeometry y="120" width="140" height="30" as="geometry" />
        </mxCell>
        <mxCell id="SrIs2BrmtRMQ9l2RYk-Y-2" value="next player actions" style="text;strokeColor=none;fillColor=none;align=left;verticalAlign=middle;spacingLeft=4;spacingRight=4;overflow=hidden;points=[[0,0.5],[1,0.5]];portConstraint=eastwest;rotatable=0;whiteSpace=wrap;html=1;" parent="CgxUOIAEzQKmIanFv_kc-84" vertex="1">
          <mxGeometry y="150" width="140" height="30" as="geometry" />
        </mxCell>
        <mxCell id="SrIs2BrmtRMQ9l2RYk-Y-3" value="set/get player actions" style="text;strokeColor=none;fillColor=none;align=left;verticalAlign=middle;spacingLeft=4;spacingRight=4;overflow=hidden;points=[[0,0.5],[1,0.5]];portConstraint=eastwest;rotatable=0;whiteSpace=wrap;html=1;" parent="CgxUOIAEzQKmIanFv_kc-84" vertex="1">
          <mxGeometry y="180" width="140" height="30" as="geometry" />
        </mxCell>
        <mxCell id="CgxUOIAEzQKmIanFv_kc-92" style="edgeStyle=orthogonalEdgeStyle;rounded=0;orthogonalLoop=1;jettySize=auto;html=1;exitX=1;exitY=0.5;exitDx=0;exitDy=0;entryX=0.5;entryY=0;entryDx=0;entryDy=0;" parent="WIyWlLk6GJQsqaUBKTNV-1" source="CgxUOIAEzQKmIanFv_kc-54" target="CgxUOIAEzQKmIanFv_kc-58" edge="1">
          <mxGeometry relative="1" as="geometry" />
        </mxCell>
        <mxCell id="CgxUOIAEzQKmIanFv_kc-97" value="Shoe" style="swimlane;fontStyle=0;childLayout=stackLayout;horizontal=1;startSize=30;horizontalStack=0;resizeParent=1;resizeParentMax=0;resizeLast=0;collapsible=1;marginBottom=0;whiteSpace=wrap;html=1;" parent="WIyWlLk6GJQsqaUBKTNV-1" vertex="1">
          <mxGeometry x="812" y="530" width="140" height="100" as="geometry" />
        </mxCell>
        <mxCell id="CgxUOIAEzQKmIanFv_kc-108" value="item specific value" style="text;strokeColor=none;fillColor=none;align=left;verticalAlign=middle;spacingLeft=4;spacingRight=4;overflow=hidden;points=[[0,0.5],[1,0.5]];portConstraint=eastwest;rotatable=0;whiteSpace=wrap;html=1;" parent="CgxUOIAEzQKmIanFv_kc-97" vertex="1">
          <mxGeometry y="30" width="140" height="30" as="geometry" />
        </mxCell>
        <mxCell id="CgxUOIAEzQKmIanFv_kc-98" value="item specific value" style="text;strokeColor=none;fillColor=none;align=left;verticalAlign=middle;spacingLeft=4;spacingRight=4;overflow=hidden;points=[[0,0.5],[1,0.5]];portConstraint=eastwest;rotatable=0;whiteSpace=wrap;html=1;" parent="CgxUOIAEzQKmIanFv_kc-97" vertex="1">
          <mxGeometry y="60" width="140" height="40" as="geometry" />
        </mxCell>
        <mxCell id="CgxUOIAEzQKmIanFv_kc-103" style="edgeStyle=orthogonalEdgeStyle;rounded=0;orthogonalLoop=1;jettySize=auto;html=1;exitX=0.25;exitY=1;exitDx=0;exitDy=0;entryX=0.557;entryY=-0.027;entryDx=0;entryDy=0;entryPerimeter=0;endArrow=block;endFill=0;" parent="WIyWlLk6GJQsqaUBKTNV-1" source="CgxUOIAEzQKmIanFv_kc-62" target="CgxUOIAEzQKmIanFv_kc-97" edge="1">
          <mxGeometry relative="1" as="geometry" />
        </mxCell>
        <mxCell id="CgxUOIAEzQKmIanFv_kc-115" style="edgeStyle=orthogonalEdgeStyle;rounded=0;orthogonalLoop=1;jettySize=auto;html=1;exitX=0.25;exitY=1;exitDx=0;exitDy=0;entryX=0.5;entryY=0;entryDx=0;entryDy=0;endArrow=block;endFill=0;" parent="WIyWlLk6GJQsqaUBKTNV-1" source="CgxUOIAEzQKmIanFv_kc-110" target="CgxUOIAEzQKmIanFv_kc-80" edge="1">
          <mxGeometry relative="1" as="geometry" />
        </mxCell>
        <mxCell id="CgxUOIAEzQKmIanFv_kc-116" style="edgeStyle=orthogonalEdgeStyle;rounded=0;orthogonalLoop=1;jettySize=auto;html=1;exitX=0.75;exitY=1;exitDx=0;exitDy=0;entryX=0.557;entryY=0.022;entryDx=0;entryDy=0;entryPerimeter=0;endArrow=block;endFill=0;" parent="WIyWlLk6GJQsqaUBKTNV-1" source="CgxUOIAEzQKmIanFv_kc-110" target="CgxUOIAEzQKmIanFv_kc-76" edge="1">
          <mxGeometry relative="1" as="geometry">
            <mxPoint x="1560" y="760" as="targetPoint" />
          </mxGeometry>
        </mxCell>
        <mxCell id="CgxUOIAEzQKmIanFv_kc-110" value="NPC" style="swimlane;fontStyle=0;childLayout=stackLayout;horizontal=1;startSize=30;horizontalStack=0;resizeParent=1;resizeParentMax=0;resizeLast=0;collapsible=1;marginBottom=0;whiteSpace=wrap;html=1;" parent="WIyWlLk6GJQsqaUBKTNV-1" vertex="1">
          <mxGeometry x="1410" y="570" width="140" height="120" as="geometry" />
        </mxCell>
        <mxCell id="CgxUOIAEzQKmIanFv_kc-111" value="automate movement state machine" style="text;strokeColor=none;fillColor=none;align=left;verticalAlign=middle;spacingLeft=4;spacingRight=4;overflow=hidden;points=[[0,0.5],[1,0.5]];portConstraint=eastwest;rotatable=0;whiteSpace=wrap;html=1;" parent="CgxUOIAEzQKmIanFv_kc-110" vertex="1">
          <mxGeometry y="30" width="140" height="30" as="geometry" />
        </mxCell>
        <mxCell id="CgxUOIAEzQKmIanFv_kc-112" value="set_player()" style="text;strokeColor=none;fillColor=none;align=left;verticalAlign=middle;spacingLeft=4;spacingRight=4;overflow=hidden;points=[[0,0.5],[1,0.5]];portConstraint=eastwest;rotatable=0;whiteSpace=wrap;html=1;" parent="CgxUOIAEzQKmIanFv_kc-110" vertex="1">
          <mxGeometry y="60" width="140" height="30" as="geometry" />
        </mxCell>
        <mxCell id="CgxUOIAEzQKmIanFv_kc-113" value="collision detect" style="text;strokeColor=none;fillColor=none;align=left;verticalAlign=middle;spacingLeft=4;spacingRight=4;overflow=hidden;points=[[0,0.5],[1,0.5]];portConstraint=eastwest;rotatable=0;whiteSpace=wrap;html=1;" parent="CgxUOIAEzQKmIanFv_kc-110" vertex="1">
          <mxGeometry y="90" width="140" height="30" as="geometry" />
        </mxCell>
        <mxCell id="8Yu4PCCks1HtGJhXdjzZ-1" value="Terrain" style="swimlane;fontStyle=0;childLayout=stackLayout;horizontal=1;startSize=30;horizontalStack=0;resizeParent=1;resizeParentMax=0;resizeLast=0;collapsible=1;marginBottom=0;whiteSpace=wrap;html=1;" parent="WIyWlLk6GJQsqaUBKTNV-1" vertex="1">
          <mxGeometry x="1101" y="-100" width="140" height="60" as="geometry" />
        </mxCell>
        <mxCell id="8Yu4PCCks1HtGJhXdjzZ-2" value="Special interactions" style="text;strokeColor=none;fillColor=none;align=left;verticalAlign=middle;spacingLeft=4;spacingRight=4;overflow=hidden;points=[[0,0.5],[1,0.5]];portConstraint=eastwest;rotatable=0;whiteSpace=wrap;html=1;" parent="8Yu4PCCks1HtGJhXdjzZ-1" vertex="1">
          <mxGeometry y="30" width="140" height="30" as="geometry" />
        </mxCell>
        <mxCell id="cXOR_1gctp86kLxKhxG7-14" style="edgeStyle=orthogonalEdgeStyle;rounded=0;orthogonalLoop=1;jettySize=auto;html=1;entryX=0.5;entryY=0;entryDx=0;entryDy=0;" edge="1" parent="WIyWlLk6GJQsqaUBKTNV-1" source="8Yu4PCCks1HtGJhXdjzZ-6" target="CgxUOIAEzQKmIanFv_kc-53">
          <mxGeometry relative="1" as="geometry" />
        </mxCell>
        <mxCell id="8Yu4PCCks1HtGJhXdjzZ-6" value="Overlay HUD" style="swimlane;fontStyle=0;childLayout=stackLayout;horizontal=1;startSize=30;horizontalStack=0;resizeParent=1;resizeParentMax=0;resizeLast=0;collapsible=1;marginBottom=0;whiteSpace=wrap;html=1;" parent="WIyWlLk6GJQsqaUBKTNV-1" vertex="1">
          <mxGeometry x="870" y="-280" width="192" height="150" as="geometry" />
        </mxCell>
        <mxCell id="8Yu4PCCks1HtGJhXdjzZ-8" value="Current score" style="text;strokeColor=none;fillColor=none;align=left;verticalAlign=middle;spacingLeft=4;spacingRight=4;overflow=hidden;points=[[0,0.5],[1,0.5]];portConstraint=eastwest;rotatable=0;whiteSpace=wrap;html=1;" parent="8Yu4PCCks1HtGJhXdjzZ-6" vertex="1">
          <mxGeometry y="30" width="192" height="30" as="geometry" />
        </mxCell>
        <mxCell id="8Yu4PCCks1HtGJhXdjzZ-7" value="Boredom Meter" style="text;strokeColor=none;fillColor=none;align=left;verticalAlign=middle;spacingLeft=4;spacingRight=4;overflow=hidden;points=[[0,0.5],[1,0.5]];portConstraint=eastwest;rotatable=0;whiteSpace=wrap;html=1;" parent="8Yu4PCCks1HtGJhXdjzZ-6" vertex="1">
          <mxGeometry y="60" width="192" height="30" as="geometry" />
        </mxCell>
        <mxCell id="8Yu4PCCks1HtGJhXdjzZ-9" value="Current Objective" style="text;strokeColor=none;fillColor=none;align=left;verticalAlign=middle;spacingLeft=4;spacingRight=4;overflow=hidden;points=[[0,0.5],[1,0.5]];portConstraint=eastwest;rotatable=0;whiteSpace=wrap;html=1;" parent="8Yu4PCCks1HtGJhXdjzZ-6" vertex="1">
          <mxGeometry y="90" width="192" height="30" as="geometry" />
        </mxCell>
        <mxCell id="8Yu4PCCks1HtGJhXdjzZ-13" value="Manager.Level.player.get_next_action()" style="text;strokeColor=none;fillColor=none;align=left;verticalAlign=middle;spacingLeft=4;spacingRight=4;overflow=hidden;points=[[0,0.5],[1,0.5]];portConstraint=eastwest;rotatable=0;whiteSpace=wrap;html=1;" parent="8Yu4PCCks1HtGJhXdjzZ-6" vertex="1">
          <mxGeometry y="120" width="192" height="30" as="geometry" />
        </mxCell>
        <mxCell id="8Yu4PCCks1HtGJhXdjzZ-12" style="edgeStyle=orthogonalEdgeStyle;rounded=0;orthogonalLoop=1;jettySize=auto;html=1;entryX=0;entryY=0.475;entryDx=0;entryDy=0;entryPerimeter=0;endArrow=diamondThin;endFill=1;" parent="WIyWlLk6GJQsqaUBKTNV-1" source="zkfFHV4jXpPFQw0GAbJ--0" target="CgxUOIAEzQKmIanFv_kc-25" edge="1">
          <mxGeometry relative="1" as="geometry">
            <Array as="points">
              <mxPoint x="230" y="122" />
              <mxPoint x="230" y="457" />
            </Array>
          </mxGeometry>
        </mxCell>
        <mxCell id="SrIs2BrmtRMQ9l2RYk-Y-7" style="edgeStyle=orthogonalEdgeStyle;rounded=0;orthogonalLoop=1;jettySize=auto;html=1;entryX=0.006;entryY=0.14;entryDx=0;entryDy=0;entryPerimeter=0;" parent="WIyWlLk6GJQsqaUBKTNV-1" source="CgxUOIAEzQKmIanFv_kc-104" target="CgxUOIAEzQKmIanFv_kc-10" edge="1">
          <mxGeometry relative="1" as="geometry">
            <mxPoint x="290" y="273" as="targetPoint" />
            <Array as="points">
              <mxPoint x="291" y="139" />
              <mxPoint x="291" y="273" />
            </Array>
          </mxGeometry>
        </mxCell>
        <mxCell id="SrIs2BrmtRMQ9l2RYk-Y-15" value="Sound Effects" style="swimlane;fontStyle=0;childLayout=stackLayout;horizontal=1;startSize=30;horizontalStack=0;resizeParent=1;resizeParentMax=0;resizeLast=0;collapsible=1;marginBottom=0;whiteSpace=wrap;html=1;" parent="WIyWlLk6GJQsqaUBKTNV-1" vertex="1">
          <mxGeometry x="790" y="100" width="140" height="120" as="geometry" />
        </mxCell>
        <mxCell id="SrIs2BrmtRMQ9l2RYk-Y-16" value="pygame.mixer" style="text;strokeColor=none;fillColor=none;align=left;verticalAlign=middle;spacingLeft=4;spacingRight=4;overflow=hidden;points=[[0,0.5],[1,0.5]];portConstraint=eastwest;rotatable=0;whiteSpace=wrap;html=1;" parent="SrIs2BrmtRMQ9l2RYk-Y-15" vertex="1">
          <mxGeometry y="30" width="140" height="30" as="geometry" />
        </mxCell>
        <mxCell id="SrIs2BrmtRMQ9l2RYk-Y-17" value="load personal sounds into mixer" style="text;strokeColor=none;fillColor=none;align=left;verticalAlign=middle;spacingLeft=4;spacingRight=4;overflow=hidden;points=[[0,0.5],[1,0.5]];portConstraint=eastwest;rotatable=0;whiteSpace=wrap;html=1;" parent="SrIs2BrmtRMQ9l2RYk-Y-15" vertex="1">
          <mxGeometry y="60" width="140" height="30" as="geometry" />
        </mxCell>
        <mxCell id="SrIs2BrmtRMQ9l2RYk-Y-18" value="play personal sounds" style="text;strokeColor=none;fillColor=none;align=left;verticalAlign=middle;spacingLeft=4;spacingRight=4;overflow=hidden;points=[[0,0.5],[1,0.5]];portConstraint=eastwest;rotatable=0;whiteSpace=wrap;html=1;" parent="SrIs2BrmtRMQ9l2RYk-Y-15" vertex="1">
          <mxGeometry y="90" width="140" height="30" as="geometry" />
        </mxCell>
        <mxCell id="SrIs2BrmtRMQ9l2RYk-Y-21" value="Potion" style="swimlane;fontStyle=0;childLayout=stackLayout;horizontal=1;startSize=30;horizontalStack=0;resizeParent=1;resizeParentMax=0;resizeLast=0;collapsible=1;marginBottom=0;whiteSpace=wrap;html=1;" parent="WIyWlLk6GJQsqaUBKTNV-1" vertex="1">
          <mxGeometry x="640" y="530" width="140" height="120" as="geometry" />
        </mxCell>
        <mxCell id="SrIs2BrmtRMQ9l2RYk-Y-22" value="paths of use: eat, destroy, and throw" style="text;strokeColor=none;fillColor=none;align=left;verticalAlign=middle;spacingLeft=4;spacingRight=4;overflow=hidden;points=[[0,0.5],[1,0.5]];portConstraint=eastwest;rotatable=0;whiteSpace=wrap;html=1;" parent="SrIs2BrmtRMQ9l2RYk-Y-21" vertex="1">
          <mxGeometry y="30" width="140" height="30" as="geometry" />
        </mxCell>
        <mxCell id="SrIs2BrmtRMQ9l2RYk-Y-23" value="Potion interaction depends on potion subtype" style="text;strokeColor=none;fillColor=none;align=left;verticalAlign=middle;spacingLeft=4;spacingRight=4;overflow=hidden;points=[[0,0.5],[1,0.5]];portConstraint=eastwest;rotatable=0;whiteSpace=wrap;html=1;" parent="SrIs2BrmtRMQ9l2RYk-Y-21" vertex="1">
          <mxGeometry y="60" width="140" height="60" as="geometry" />
        </mxCell>
        <mxCell id="SrIs2BrmtRMQ9l2RYk-Y-25" style="edgeStyle=orthogonalEdgeStyle;rounded=0;orthogonalLoop=1;jettySize=auto;html=1;exitX=0;exitY=0.5;exitDx=0;exitDy=0;entryX=0.5;entryY=0;entryDx=0;entryDy=0;endArrow=block;endFill=0;" parent="WIyWlLk6GJQsqaUBKTNV-1" source="CgxUOIAEzQKmIanFv_kc-64" target="SrIs2BrmtRMQ9l2RYk-Y-21" edge="1">
          <mxGeometry relative="1" as="geometry" />
        </mxCell>
        <mxCell id="TFks07u6yclh4-rxXNK--18" style="edgeStyle=orthogonalEdgeStyle;rounded=0;orthogonalLoop=1;jettySize=auto;html=1;" parent="WIyWlLk6GJQsqaUBKTNV-1" source="TFks07u6yclh4-rxXNK--2" target="TFks07u6yclh4-rxXNK--12" edge="1">
          <mxGeometry relative="1" as="geometry" />
        </mxCell>
        <mxCell id="TFks07u6yclh4-rxXNK--2" value="Menu" style="swimlane;fontStyle=0;childLayout=stackLayout;horizontal=1;startSize=30;horizontalStack=0;resizeParent=1;resizeParentMax=0;resizeLast=0;collapsible=1;marginBottom=0;whiteSpace=wrap;html=1;" parent="WIyWlLk6GJQsqaUBKTNV-1" vertex="1">
          <mxGeometry x="323" y="690" width="192" height="90" as="geometry" />
        </mxCell>
        <mxCell id="TFks07u6yclh4-rxXNK--19" value="Menu Select" style="text;strokeColor=none;fillColor=none;align=left;verticalAlign=middle;spacingLeft=4;spacingRight=4;overflow=hidden;points=[[0,0.5],[1,0.5]];portConstraint=eastwest;rotatable=0;whiteSpace=wrap;html=1;" parent="TFks07u6yclh4-rxXNK--2" vertex="1">
          <mxGeometry y="30" width="192" height="30" as="geometry" />
        </mxCell>
        <mxCell id="TFks07u6yclh4-rxXNK--20" value="Draw Menu Assets" style="text;strokeColor=none;fillColor=none;align=left;verticalAlign=middle;spacingLeft=4;spacingRight=4;overflow=hidden;points=[[0,0.5],[1,0.5]];portConstraint=eastwest;rotatable=0;whiteSpace=wrap;html=1;" parent="TFks07u6yclh4-rxXNK--2" vertex="1">
          <mxGeometry y="60" width="192" height="30" as="geometry" />
        </mxCell>
        <mxCell id="TFks07u6yclh4-rxXNK--12" value="Settings Menu" style="swimlane;fontStyle=0;childLayout=stackLayout;horizontal=1;startSize=30;horizontalStack=0;resizeParent=1;resizeParentMax=0;resizeLast=0;collapsible=1;marginBottom=0;whiteSpace=wrap;html=1;" parent="WIyWlLk6GJQsqaUBKTNV-1" vertex="1">
          <mxGeometry x="470" y="870" width="192" height="60" as="geometry" />
        </mxCell>
        <mxCell id="TFks07u6yclh4-rxXNK--13" value="Audio" style="text;strokeColor=none;fillColor=none;align=left;verticalAlign=middle;spacingLeft=4;spacingRight=4;overflow=hidden;points=[[0,0.5],[1,0.5]];portConstraint=eastwest;rotatable=0;whiteSpace=wrap;html=1;" parent="TFks07u6yclh4-rxXNK--12" vertex="1">
          <mxGeometry y="30" width="192" height="30" as="geometry" />
        </mxCell>
        <mxCell id="cXOR_1gctp86kLxKhxG7-9" style="edgeStyle=orthogonalEdgeStyle;rounded=0;orthogonalLoop=1;jettySize=auto;html=1;entryX=0.75;entryY=0;entryDx=0;entryDy=0;endArrow=block;endFill=0;" edge="1" parent="WIyWlLk6GJQsqaUBKTNV-1" source="cXOR_1gctp86kLxKhxG7-0" target="CgxUOIAEzQKmIanFv_kc-62">
          <mxGeometry relative="1" as="geometry">
            <mxPoint x="1112" y="230" as="sourcePoint" />
            <mxPoint x="954" y="390" as="targetPoint" />
          </mxGeometry>
        </mxCell>
        <mxCell id="cXOR_1gctp86kLxKhxG7-10" style="edgeStyle=orthogonalEdgeStyle;rounded=0;orthogonalLoop=1;jettySize=auto;html=1;endArrow=block;endFill=0;" edge="1" parent="WIyWlLk6GJQsqaUBKTNV-1" source="cXOR_1gctp86kLxKhxG7-0" target="CgxUOIAEzQKmIanFv_kc-66">
          <mxGeometry relative="1" as="geometry" />
        </mxCell>
        <mxCell id="cXOR_1gctp86kLxKhxG7-0" value="Entity" style="swimlane;fontStyle=0;childLayout=stackLayout;horizontal=1;startSize=30;horizontalStack=0;resizeParent=1;resizeParentMax=0;resizeLast=0;collapsible=1;marginBottom=0;whiteSpace=wrap;html=1;" vertex="1" parent="WIyWlLk6GJQsqaUBKTNV-1">
          <mxGeometry x="1040" y="180" width="140" height="120" as="geometry" />
        </mxCell>
        <mxCell id="cXOR_1gctp86kLxKhxG7-1" value="speed of sprite" style="text;strokeColor=none;fillColor=none;align=left;verticalAlign=middle;spacingLeft=4;spacingRight=4;overflow=hidden;points=[[0,0.5],[1,0.5]];portConstraint=eastwest;rotatable=0;whiteSpace=wrap;html=1;" vertex="1" parent="cXOR_1gctp86kLxKhxG7-0">
          <mxGeometry y="30" width="140" height="30" as="geometry" />
        </mxCell>
        <mxCell id="cXOR_1gctp86kLxKhxG7-3" value="collision adjust compass" style="text;strokeColor=none;fillColor=none;align=left;verticalAlign=middle;spacingLeft=4;spacingRight=4;overflow=hidden;points=[[0,0.5],[1,0.5]];portConstraint=eastwest;rotatable=0;whiteSpace=wrap;html=1;" vertex="1" parent="cXOR_1gctp86kLxKhxG7-0">
          <mxGeometry y="60" width="140" height="30" as="geometry" />
        </mxCell>
        <mxCell id="cXOR_1gctp86kLxKhxG7-2" value="collision check detect" style="text;strokeColor=none;fillColor=none;align=left;verticalAlign=middle;spacingLeft=4;spacingRight=4;overflow=hidden;points=[[0,0.5],[1,0.5]];portConstraint=eastwest;rotatable=0;whiteSpace=wrap;html=1;" vertex="1" parent="cXOR_1gctp86kLxKhxG7-0">
          <mxGeometry y="90" width="140" height="30" as="geometry" />
        </mxCell>
        <mxCell id="cXOR_1gctp86kLxKhxG7-8" style="edgeStyle=orthogonalEdgeStyle;rounded=0;orthogonalLoop=1;jettySize=auto;html=1;endArrow=block;endFill=0;" edge="1" parent="WIyWlLk6GJQsqaUBKTNV-1" source="CgxUOIAEzQKmIanFv_kc-58" target="cXOR_1gctp86kLxKhxG7-0">
          <mxGeometry relative="1" as="geometry" />
        </mxCell>
        <mxCell id="cXOR_1gctp86kLxKhxG7-11" style="edgeStyle=orthogonalEdgeStyle;rounded=0;orthogonalLoop=1;jettySize=auto;html=1;entryX=1;entryY=0.25;entryDx=0;entryDy=0;" edge="1" parent="WIyWlLk6GJQsqaUBKTNV-1" source="CgxUOIAEzQKmIanFv_kc-58" target="SrIs2BrmtRMQ9l2RYk-Y-15">
          <mxGeometry relative="1" as="geometry" />
        </mxCell>
        <mxCell id="CgxUOIAEzQKmIanFv_kc-58" value="Tile" style="swimlane;fontStyle=0;childLayout=stackLayout;horizontal=1;startSize=30;horizontalStack=0;resizeParent=1;resizeParentMax=0;resizeLast=0;collapsible=1;marginBottom=0;whiteSpace=wrap;html=1;" parent="WIyWlLk6GJQsqaUBKTNV-1" vertex="1">
          <mxGeometry x="1040" y="34" width="140" height="60" as="geometry" />
        </mxCell>
        <mxCell id="CgxUOIAEzQKmIanFv_kc-59" value="movement logic" style="text;strokeColor=none;fillColor=none;align=left;verticalAlign=middle;spacingLeft=4;spacingRight=4;overflow=hidden;points=[[0,0.5],[1,0.5]];portConstraint=eastwest;rotatable=0;whiteSpace=wrap;html=1;" parent="CgxUOIAEzQKmIanFv_kc-58" vertex="1">
          <mxGeometry y="30" width="140" height="30" as="geometry" />
        </mxCell>
        <mxCell id="cXOR_1gctp86kLxKhxG7-19" style="edgeStyle=orthogonalEdgeStyle;rounded=0;orthogonalLoop=1;jettySize=auto;html=1;entryX=1;entryY=0.25;entryDx=0;entryDy=0;" edge="1" parent="WIyWlLk6GJQsqaUBKTNV-1" source="cXOR_1gctp86kLxKhxG7-15" target="cXOR_1gctp86kLxKhxG7-0">
          <mxGeometry relative="1" as="geometry" />
        </mxCell>
        <mxCell id="cXOR_1gctp86kLxKhxG7-15" value="Score Controller" style="swimlane;fontStyle=0;childLayout=stackLayout;horizontal=1;startSize=30;horizontalStack=0;resizeParent=1;resizeParentMax=0;resizeLast=0;collapsible=1;marginBottom=0;whiteSpace=wrap;html=1;" vertex="1" parent="WIyWlLk6GJQsqaUBKTNV-1">
          <mxGeometry x="1350" y="-100" width="140" height="90" as="geometry" />
        </mxCell>
        <mxCell id="cXOR_1gctp86kLxKhxG7-16" value="Current Score" style="text;strokeColor=none;fillColor=none;align=left;verticalAlign=middle;spacingLeft=4;spacingRight=4;overflow=hidden;points=[[0,0.5],[1,0.5]];portConstraint=eastwest;rotatable=0;whiteSpace=wrap;html=1;" vertex="1" parent="cXOR_1gctp86kLxKhxG7-15">
          <mxGeometry y="30" width="140" height="30" as="geometry" />
        </mxCell>
        <mxCell id="cXOR_1gctp86kLxKhxG7-17" value="Boredom Meter" style="text;strokeColor=none;fillColor=none;align=left;verticalAlign=middle;spacingLeft=4;spacingRight=4;overflow=hidden;points=[[0,0.5],[1,0.5]];portConstraint=eastwest;rotatable=0;whiteSpace=wrap;html=1;" vertex="1" parent="cXOR_1gctp86kLxKhxG7-15">
          <mxGeometry y="60" width="140" height="30" as="geometry" />
        </mxCell>
        <mxCell id="cXOR_1gctp86kLxKhxG7-18" style="edgeStyle=orthogonalEdgeStyle;rounded=0;orthogonalLoop=1;jettySize=auto;html=1;entryX=0.568;entryY=0.033;entryDx=0;entryDy=0;entryPerimeter=0;" edge="1" parent="WIyWlLk6GJQsqaUBKTNV-1" source="8Yu4PCCks1HtGJhXdjzZ-7" target="cXOR_1gctp86kLxKhxG7-15">
          <mxGeometry relative="1" as="geometry" />
        </mxCell>
        <mxCell id="cXOR_1gctp86kLxKhxG7-20" style="edgeStyle=orthogonalEdgeStyle;rounded=0;orthogonalLoop=1;jettySize=auto;html=1;entryX=0.104;entryY=-0.008;entryDx=0;entryDy=0;entryPerimeter=0;" edge="1" parent="WIyWlLk6GJQsqaUBKTNV-1" source="CgxUOIAEzQKmIanFv_kc-34" target="CgxUOIAEzQKmIanFv_kc-53">
          <mxGeometry relative="1" as="geometry" />
        </mxCell>
      </root>
    </mxGraphModel>
  </diagram>
</mxfile>
